<mxfile host="65bd71144e">
    <diagram id="DphJa4PuFgeB4qhtM237" name="Page-1">
        <mxGraphModel dx="1842" dy="1781" grid="1" gridSize="10" guides="1" tooltips="1" connect="1" arrows="1" fold="1" page="1" pageScale="1" pageWidth="850" pageHeight="1100" math="0" shadow="0">
            <root>
                <mxCell id="0"/>
                <mxCell id="1" parent="0"/>
                <mxCell id="83" value="" style="group" parent="1" vertex="1" connectable="0">
                    <mxGeometry x="-490" y="-270" width="873" height="862" as="geometry"/>
                </mxCell>
                <mxCell id="82" value="" style="rounded=1;whiteSpace=wrap;html=1;" parent="83" vertex="1">
                    <mxGeometry width="370" height="220" as="geometry"/>
                </mxCell>
                <mxCell id="41" value="" style="rounded=1;whiteSpace=wrap;html=1;" parent="83" vertex="1">
                    <mxGeometry y="540" width="465" height="310" as="geometry"/>
                </mxCell>
                <mxCell id="58" value="" style="rounded=1;whiteSpace=wrap;html=1;" parent="83" vertex="1">
                    <mxGeometry y="210" width="510" height="380" as="geometry"/>
                </mxCell>
                <mxCell id="62" value="" style="rounded=1;whiteSpace=wrap;html=1;" parent="83" vertex="1">
                    <mxGeometry x="290" width="360" height="440" as="geometry"/>
                </mxCell>
                <mxCell id="33" value="" style="rounded=1;whiteSpace=wrap;html=1;" parent="83" vertex="1">
                    <mxGeometry x="330" y="550.25" width="490" height="299.75" as="geometry"/>
                </mxCell>
                <mxCell id="31" value="" style="rounded=1;whiteSpace=wrap;html=1;" parent="83" vertex="1">
                    <mxGeometry x="370" y="370" width="460" height="200" as="geometry"/>
                </mxCell>
                <mxCell id="36" style="edgeStyle=none;html=1;strokeWidth=4;" parent="83" source="24" target="35" edge="1">
                    <mxGeometry relative="1" as="geometry"/>
                </mxCell>
                <mxCell id="24" value="&lt;b&gt;user query&lt;/b&gt;" style="shape=parallelogram;perimeter=parallelogramPerimeter;whiteSpace=wrap;html=1;fixedSize=1;strokeWidth=4;rounded=1;fillColor=light-dark(#FF3333,#FF3333);" parent="83" vertex="1">
                    <mxGeometry x="395" y="440" width="120" height="60" as="geometry"/>
                </mxCell>
                <mxCell id="32" value="&lt;span&gt;Embed query&lt;/span&gt;" style="text;html=1;align=center;verticalAlign=middle;whiteSpace=wrap;rounded=0;fontSize=20;fontStyle=1" parent="83" vertex="1">
                    <mxGeometry x="433" y="370" width="180" height="30" as="geometry"/>
                </mxCell>
                <mxCell id="40" value="" style="edgeStyle=none;html=1;strokeWidth=4;entryX=0.907;entryY=0.468;entryDx=0;entryDy=0;entryPerimeter=0;" parent="83" source="35" target="39" edge="1">
                    <mxGeometry relative="1" as="geometry"/>
                </mxCell>
                <mxCell id="35" value="Similarity search of query in the vector db" style="rounded=1;whiteSpace=wrap;html=1;strokeWidth=4;" parent="83" vertex="1">
                    <mxGeometry x="385" y="682.5" width="130" height="80" as="geometry"/>
                </mxCell>
                <mxCell id="38" value="&lt;span&gt;Similarity search&lt;/span&gt;" style="text;html=1;align=center;verticalAlign=middle;whiteSpace=wrap;rounded=0;fontSize=20;fontStyle=1" parent="83" vertex="1">
                    <mxGeometry x="395" y="774" width="180" height="30" as="geometry"/>
                </mxCell>
                <mxCell id="39" value="Context Embedding&amp;nbsp;&lt;div&gt;of the results of the search&lt;/div&gt;&lt;div&gt;&amp;nbsp;of the query inside the&amp;nbsp;&lt;/div&gt;&lt;div&gt;vector db&lt;/div&gt;" style="whiteSpace=wrap;html=1;rounded=1;strokeWidth=4;shape=parallelogram" parent="83" vertex="1">
                    <mxGeometry x="80" y="677.5" width="200" height="90" as="geometry"/>
                </mxCell>
                <mxCell id="42" value="&lt;b&gt;&lt;font style=&quot;font-size: 20px;&quot;&gt;Context embedding&lt;/font&gt;&lt;/b&gt;" style="text;html=1;align=center;verticalAlign=middle;whiteSpace=wrap;rounded=0;" parent="83" vertex="1">
                    <mxGeometry x="85" y="790" width="180" height="30" as="geometry"/>
                </mxCell>
                <mxCell id="45" value="" style="endArrow=classic;html=1;entryX=0.5;entryY=1;entryDx=0;entryDy=0;strokeWidth=4;exitX=0.419;exitY=0.006;exitDx=0;exitDy=0;exitPerimeter=0;" parent="83" source="39" target="44" edge="1">
                    <mxGeometry width="50" height="50" relative="1" as="geometry">
                        <mxPoint x="165" y="670" as="sourcePoint"/>
                        <mxPoint x="340" y="770" as="targetPoint"/>
                    </mxGeometry>
                </mxCell>
                <mxCell id="56" style="edgeStyle=none;html=1;strokeWidth=4;entryX=0.5;entryY=1;entryDx=0;entryDy=0;" parent="83" source="44" target="60" edge="1">
                    <mxGeometry relative="1" as="geometry"/>
                </mxCell>
                <mxCell id="59" value="&lt;span&gt;conversion of context embedding to textual context&lt;/span&gt;" style="text;html=1;align=center;verticalAlign=middle;whiteSpace=wrap;rounded=0;fontSize=20;fontStyle=1" parent="83" vertex="1">
                    <mxGeometry x="5" y="330" width="140" height="60" as="geometry"/>
                </mxCell>
                <mxCell id="64" style="edgeStyle=none;html=1;strokeWidth=4;" parent="83" source="60" target="63" edge="1">
                    <mxGeometry relative="1" as="geometry"/>
                </mxCell>
                <mxCell id="60" value="Textual Context" style="shape=parallelogram;perimeter=parallelogramPerimeter;whiteSpace=wrap;html=1;fixedSize=1;strokeWidth=4;rounded=1" parent="83" vertex="1">
                    <mxGeometry x="105" y="225" width="120" height="60" as="geometry"/>
                </mxCell>
                <mxCell id="61" value="" style="group" parent="83" vertex="1" connectable="0">
                    <mxGeometry x="613" y="2" width="260" height="860" as="geometry"/>
                </mxCell>
                <mxCell id="25" value="" style="rounded=1;whiteSpace=wrap;html=1;" parent="61" vertex="1">
                    <mxGeometry width="260" height="847.887323943662" as="geometry"/>
                </mxCell>
                <mxCell id="5" value="" style="edgeStyle=none;html=1;strokeWidth=4;" parent="61" source="2" target="3" edge="1">
                    <mxGeometry relative="1" as="geometry"/>
                </mxCell>
                <mxCell id="2" value="embedding&amp;nbsp;&lt;div&gt;model&lt;/div&gt;" style="rounded=1;whiteSpace=wrap;html=1;fillColor=light-dark(#99CCFF,#0066CC);strokeWidth=4;fontStyle=1;ellipse;strokeColor=#3333FF;" parent="61" vertex="1">
                    <mxGeometry x="70" y="397.9967282070803" width="120" height="107.49999999999999" as="geometry"/>
                </mxCell>
                <mxCell id="9" value="" style="edgeStyle=none;html=1;strokeWidth=4;" parent="61" source="3" target="8" edge="1">
                    <mxGeometry relative="1" as="geometry"/>
                </mxCell>
                <mxCell id="3" value="embeds text into vector embedding space" style="whiteSpace=wrap;html=1;rounded=1;strokeWidth=4;" parent="61" vertex="1">
                    <mxGeometry x="70" y="547.9986648267986" width="120" height="80.625" as="geometry"/>
                </mxCell>
                <mxCell id="8" value="outputs vector db with embeddings of texts" style="shape=parallelogram;perimeter=parallelogramPerimeter;whiteSpace=wrap;html=1;fixedSize=1;strokeWidth=4;rounded=1" parent="61" vertex="1">
                    <mxGeometry x="46.25" y="680.5001789113057" width="175" height="80.625" as="geometry"/>
                </mxCell>
                <mxCell id="26" value="&lt;span&gt;Embed documents&lt;/span&gt;" style="text;html=1;align=center;verticalAlign=middle;whiteSpace=wrap;rounded=0;fontSize=20;fontStyle=1" parent="61" vertex="1">
                    <mxGeometry x="60" y="40.31552816901408" width="180" height="40.3125" as="geometry"/>
                </mxCell>
                <mxCell id="29" value="" style="edgeStyle=none;html=1;strokeWidth=4;" parent="61" source="28" target="2" edge="1">
                    <mxGeometry relative="1" as="geometry"/>
                </mxCell>
                <mxCell id="28" value="&lt;span style=&quot;background-color: transparent;&quot;&gt;Input textual documents to be searched&lt;/span&gt;" style="shape=parallelogram;perimeter=parallelogramPerimeter;whiteSpace=wrap;html=1;fixedSize=1;strokeWidth=4;rounded=1" parent="61" vertex="1">
                    <mxGeometry x="70" y="146.15686905215074" width="127.5" height="80.625" as="geometry"/>
                </mxCell>
                <mxCell id="4" value="" style="edgeStyle=none;html=1;strokeWidth=4;" parent="61" source="2" target="3" edge="1">
                    <mxGeometry relative="1" as="geometry"/>
                </mxCell>
                <mxCell id="74" value="&lt;font style=&quot;font-size: 72px; color: light-dark(rgb(0, 0, 0), rgb(51, 153, 255));&quot;&gt;&lt;span&gt;1&lt;/span&gt;&lt;/font&gt;" style="text;html=1;align=center;verticalAlign=middle;whiteSpace=wrap;rounded=0;fontColor=light-dark(#000000,#3399FF);fontStyle=1" parent="61" vertex="1">
                    <mxGeometry x="-1.25" y="13.437499999999998" width="70" height="94.06249999999999" as="geometry"/>
                </mxCell>
                <mxCell id="63" value="General Purpose Transformer Generation Model" style="rounded=1;whiteSpace=wrap;html=1;strokeWidth=4;fillColor=light-dark(#0000FF,#000099);fontColor=light-dark(#FFFFFF,#FFFFFF);strokeColor=light-dark(#33FFFF,#FFFFFF);fontStyle=1;ellipse" parent="83" vertex="1">
                    <mxGeometry x="340" y="210" width="180" height="90" as="geometry"/>
                </mxCell>
                <mxCell id="65" style="edgeStyle=none;html=1;entryX=0.617;entryY=1.031;entryDx=0;entryDy=0;entryPerimeter=0;strokeWidth=4;" parent="83" source="24" target="63" edge="1">
                    <mxGeometry relative="1" as="geometry"/>
                </mxCell>
                <mxCell id="67" value="&lt;b&gt;Output Response&lt;/b&gt;" style="shape=parallelogram;perimeter=parallelogramPerimeter;whiteSpace=wrap;html=1;fixedSize=1;strokeWidth=4;rounded=1;fillColor=light-dark(#FF3333,#FF0000);" parent="83" vertex="1">
                    <mxGeometry x="370" y="30" width="140" height="70" as="geometry"/>
                </mxCell>
                <mxCell id="68" style="edgeStyle=none;html=1;entryX=0.424;entryY=1.029;entryDx=0;entryDy=0;entryPerimeter=0;strokeWidth=4;" parent="83" source="63" target="67" edge="1">
                    <mxGeometry relative="1" as="geometry"/>
                </mxCell>
                <mxCell id="69" value="&lt;font style=&quot;font-size: 72px;&quot;&gt;&lt;b&gt;6&lt;/b&gt;&lt;/font&gt;" style="text;html=1;align=center;verticalAlign=middle;whiteSpace=wrap;rounded=0;" parent="83" vertex="1">
                    <mxGeometry x="290" y="20" width="70" height="70" as="geometry"/>
                </mxCell>
                <mxCell id="70" value="Output generation&amp;nbsp;" style="text;html=1;align=center;verticalAlign=middle;whiteSpace=wrap;rounded=0;fontStyle=1;fontSize=20;" parent="83" vertex="1">
                    <mxGeometry x="465" y="120" width="120" height="30" as="geometry"/>
                </mxCell>
                <mxCell id="71" value="&lt;font style=&quot;font-size: 72px;&quot;&gt;&lt;b&gt;2&lt;/b&gt;&lt;/font&gt;" style="text;html=1;align=center;verticalAlign=middle;whiteSpace=wrap;rounded=0;" parent="83" vertex="1">
                    <mxGeometry x="380" y="370" width="70" height="70" as="geometry"/>
                </mxCell>
                <mxCell id="72" value="&lt;font style=&quot;font-size: 72px;&quot;&gt;&lt;b&gt;3&lt;/b&gt;&lt;/font&gt;" style="text;html=1;align=center;verticalAlign=middle;whiteSpace=wrap;rounded=0;" parent="83" vertex="1">
                    <mxGeometry x="350" y="580" width="70" height="70" as="geometry"/>
                </mxCell>
                <mxCell id="73" value="&lt;font style=&quot;font-size: 72px;&quot;&gt;&lt;b&gt;4&lt;/b&gt;&lt;/font&gt;" style="text;html=1;align=center;verticalAlign=middle;whiteSpace=wrap;rounded=0;" parent="83" vertex="1">
                    <mxGeometry x="40" y="607.5" width="70" height="70" as="geometry"/>
                </mxCell>
                <mxCell id="75" value="&lt;font style=&quot;font-size: 72px;&quot;&gt;&lt;b&gt;5&lt;/b&gt;&lt;/font&gt;" style="text;html=1;align=center;verticalAlign=middle;whiteSpace=wrap;rounded=0;" parent="83" vertex="1">
                    <mxGeometry x="10" y="230" width="70" height="70" as="geometry"/>
                </mxCell>
                <mxCell id="30" style="edgeStyle=none;html=1;strokeWidth=4;entryX=0.007;entryY=0.625;entryDx=0;entryDy=0;entryPerimeter=0;" parent="83" source="24" target="2" edge="1">
                    <mxGeometry relative="1" as="geometry"/>
                </mxCell>
                <mxCell id="37" style="edgeStyle=none;html=1;strokeWidth=4;" parent="83" source="8" target="35" edge="1">
                    <mxGeometry relative="1" as="geometry"/>
                </mxCell>
                <mxCell id="44" value="Retrieval systems convert context embedding to text&lt;div&gt;(Pinecone/Chroma db)&lt;/div&gt;" style="rounded=1;whiteSpace=wrap;html=1;strokeWidth=4;fillColor=light-dark(#9999FF,#6666FF);fontColor=#ffffff;strokeColor=light-dark(#6666FF,#FFFFFF);fontStyle=1;ellipse" parent="83" vertex="1">
                    <mxGeometry x="75" y="420" width="180" height="90" as="geometry"/>
                </mxCell>
                <mxCell id="81" value="&lt;font style=&quot;color: light-dark(rgb(0, 0, 0), rgb(204, 204, 0)); font-size: 50px;&quot;&gt;RAG Workflow&lt;/font&gt;" style="text;html=1;align=center;verticalAlign=middle;whiteSpace=wrap;rounded=0;fontStyle=1;fontColor=light-dark(#000000,#CCCC00);" parent="83" vertex="1">
                    <mxGeometry x="5" width="300" height="220" as="geometry"/>
                </mxCell>
            </root>
        </mxGraphModel>
    </diagram>
</mxfile>